<svg xmlns="http://www.w3.org/2000/svg" viewBox="0 0 1600 180" width="1600" height="180">
<g stroke="#111111" stroke-width="3" stroke-linejoin="round" stroke-linecap="round">
<rect x="-10" y="130" width="1620" height="60" fill="#c99b6b"/>
<path d="M-40 150 H120 M160 150 H320 M360 150 H520 M560 150 H720 M760 150 H920 M960 150 H1120 M1160 150 H1320 M1360 150 H1520 M1560 150 H1720 M60 168 H220 M260 168 H420 M460 168 H620 M660 168 H820 M860 168 H1020 M1060 168 H1220 M1260 168 H1420 M1460 168 H1620 M1660 168 H1820" stroke="#ebcfa8" stroke-width="2"/>
<rect x="548" y="114" width="16" height="58" rx="3" fill="#c99b6b"/>
<rect x="1176" y="114" width="16" height="58" rx="3" fill="#c99b6b"/>
<rect x="520" y="102" width="684" height="14" rx="4" fill="#ebcfa8"/>
<path d="M540 116 H1184" stroke-width="3"/>
<path d="M660 102 Q640 92 620 96 V102 Z M660 102 Q680 92 700 96 V102 Z" fill="#ffffff" stroke-width="2"/>
<path d="M612 102 V98 Q636 90 660 100 Q684 90 708 98 V102" fill="none" stroke-width="2"/>
<rect x="900" y="92" width="56" height="10" rx="2" fill="#a8c8e8" stroke-width="2"/>
<rect x="903" y="82" width="50" height="10" rx="2" fill="#e8907a" stroke-width="2"/>
<rect x="901" y="72" width="54" height="10" rx="2" fill="#ffd66b" stroke-width="2"/>
<rect x="1112" y="96" width="44" height="8" rx="3" fill="#bfc3cc" stroke-width="2"/>
<path d="M1134 96 V60" stroke-width="5"/>
<path d="M1134 96 V60" stroke="#bfc3cc" stroke-width="2"/>
<ellipse cx="1134" cy="62" rx="14" ry="5" fill="#ffd66b" stroke-width="2"/>
<path d="M1100 62 Q1100 36 1134 34 Q1168 36 1168 62 Z" fill="#6e9c82"/>
<path d="M654 146 L652 176 M706 146 L708 176" stroke-width="7"/>
<path d="M654 146 L652 176 M706 146 L708 176" stroke="#ebcfa8" stroke-width="3"/>
<rect x="650" y="96" width="60" height="44" rx="8" fill="#ebcfa8"/>
<path d="M662 108 V130 M680 108 V130 M698 108 V130" stroke-width="2"/>
<rect x="644" y="138" width="72" height="10" rx="4" fill="#f6b8c8"/>
<path d="M934 146 L932 176 M986 146 L988 176" stroke-width="7"/>
<path d="M934 146 L932 176 M986 146 L988 176" stroke="#ebcfa8" stroke-width="3"/>
<rect x="930" y="96" width="60" height="44" rx="8" fill="#ebcfa8"/>
<path d="M942 108 V130 M960 108 V130 M978 108 V130" stroke-width="2"/>
<rect x="924" y="138" width="72" height="10" rx="4" fill="#a8c8e8"/>
<path d="M760 170 Q752 132 800 128 Q848 132 840 170 Z" fill="#c9bfe8"/>
<path d="M780 140 Q800 148 820 140" fill="none" stroke-width="2"/>
<rect x="190" y="64" width="160" height="86" rx="4" fill="#ebcfa8"/>
<path d="M190 106 H350" stroke-width="3"/>
<rect x="200" y="73" width="18" height="33" rx="2" fill="#6e9c82" stroke-width="2"/>
<rect x="218" y="78" width="12" height="28" rx="2" fill="#a8c8e8" stroke-width="2"/>
<rect x="230" y="78" width="12" height="28" rx="2" fill="#f6b8c8" stroke-width="2"/>
<rect x="242" y="71" width="14" height="35" rx="2" fill="#3d4a7a" stroke-width="2"/>
<rect x="256" y="70" width="18" height="36" rx="2" fill="#ffd66b" stroke-width="2"/>
<path d="M259 78 H271 M259 98 H271" stroke="#111111" stroke-width="2"/>
<rect x="274" y="78" width="20" height="28" rx="2" fill="#e8907a" stroke-width="2"/>
<path d="M277 86 H291 M277 98 H291" stroke="#111111" stroke-width="2"/>
<rect x="294" y="72" width="12" height="34" rx="2" fill="#6e9c82" stroke-width="2"/>
<rect x="306" y="77" width="18" height="29" rx="2" fill="#3d4a7a" stroke-width="2"/>
<rect x="324" y="76" width="12" height="30" rx="2" fill="#a8c8e8" stroke-width="2"/>
<path d="M327 84 H333 M327 98 H333" stroke="#111111" stroke-width="2"/>
<rect x="200" y="113" width="14" height="35" rx="2" fill="#f6b8c8" stroke-width="2"/>
<path d="M203 121 H211 M203 140 H211" stroke="#111111" stroke-width="2"/>
<rect x="214" y="120" width="18" height="28" rx="2" fill="#e8907a" stroke-width="2"/>
<rect x="232" y="115" width="16" height="33" rx="2" fill="#6e9c82" stroke-width="2"/>
<rect x="248" y="116" width="20" height="32" rx="2" fill="#3d4a7a" stroke-width="2"/>
<rect x="268" y="120" width="20" height="28" rx="2" fill="#9ccb8f" stroke-width="2"/>
<path d="M271 128 H285 M271 140 H285" stroke="#111111" stroke-width="2"/>
<rect x="288" y="122" width="20" height="26" rx="2" fill="#3d4a7a" stroke-width="2"/>
<rect x="308" y="113" width="14" height="35" rx="2" fill="#e8907a" stroke-width="2"/>
<rect x="322" y="120" width="14" height="28" rx="2" fill="#ffd66b" stroke-width="2"/>
<rect x="186" y="146" width="168" height="10" rx="3" fill="#c99b6b"/>
<g fill="#bfc3cc"><circle cx="206" cy="166" r="8"/><circle cx="334" cy="166" r="8"/></g>
<path d="M350 70 H372 V40" fill="none" stroke-width="4"/>
<rect x="1290" y="98" width="100" height="72" rx="4" fill="#ebcfa8"/>
<path d="M1290 134 H1390 M1332 116 H1348 M1332 152 H1348" stroke-width="2"/>
<path d="M1312 98 L1320 90 H1360 L1368 98 Z" fill="#c99b6b" stroke-width="2"/>
<path d="M1340 90 V80" stroke-width="3"/>
<circle cx="1340" cy="52" r="28" fill="#a8c8e8"/>
<path d="M1322 40 Q1334 30 1346 38 Q1352 50 1340 54 Q1332 66 1324 58 Q1316 48 1322 40 Z M1350 62 Q1362 58 1364 68 Q1356 76 1348 70 Z" fill="#9ccb8f" stroke-width="2"/>
<path d="M1306 40 Q1300 72 1324 84" fill="none" stroke-width="3"/>
<path d="M1476 168 L1469 131 H1531 L1524 168 Z" fill="#e8907a"/>
<path d="M1500 131 Q1458 105 1463 61 Q1493 85 1500 131 Z M1500 131 Q1507 76 1537 54 Q1548 98 1500 131 Z M1500 131 Q1482 89 1498 30 Q1522 80 1500 131 Z" fill="#9ccb8f"/>
</g>
</svg>
