<svg xmlns="http://www.w3.org/2000/svg" viewBox="0 0 1600 180" width="1600" height="180">
<g stroke="#111111" stroke-width="3" stroke-linejoin="round" stroke-linecap="round">
<rect x="-10" y="130" width="1620" height="60" fill="#c99b6b"/>
<path d="M-40 150 H120 M160 150 H320 M360 150 H520 M560 150 H720 M760 150 H920 M960 150 H1120 M1160 150 H1320 M1360 150 H1520 M1560 150 H1720 M60 168 H220 M260 168 H420 M460 168 H620 M660 168 H820 M860 168 H1020 M1060 168 H1220 M1260 168 H1420 M1460 168 H1620 M1660 168 H1820" stroke="#ebcfa8" stroke-width="2"/>
<rect x="740" y="146" width="300" height="22" rx="11" fill="#f6b8c8"/>
<rect x="756" y="151" width="268" height="12" rx="6" fill="none" stroke="#ffffff" stroke-width="2"/>
<path d="M608 166 V174 M676 166 V174" stroke-width="5"/>
<rect x="600" y="138" width="84" height="28" rx="4" fill="#ebcfa8"/>
<path d="M612 152 H672" stroke-width="2"/>
<path d="M634 138 L636 132 H648 L650 138 Z" fill="#c99b6b" stroke-width="2"/>
<rect x="632" y="108" width="20" height="26" rx="4" fill="#111111"/>
<rect x="635" y="112" width="14" height="18" rx="2" fill="#ffffff" stroke="none"/>
<rect x="637" y="115" width="10" height="5" rx="2" fill="#ff4d00" stroke="none"/>
<path d="M638 124 H646" stroke="#bfc3cc" stroke-width="2"/>
<path d="M624 112 L618 108 M622 122 H614 M660 112 L666 108 M662 122 H670" stroke="#ff4d00" stroke-width="2"/>
<rect x="130" y="40" width="40" height="132" rx="8" fill="#ebcfa8"/>
<rect x="166" y="104" width="394" height="40" rx="4" fill="#ffffff"/>
<rect x="180" y="78" width="70" height="30" rx="12" fill="#ffffff"/>
<path d="M240 144 V100 Q240 86 256 86 H556 V144 Z" fill="#a8c8e8"/>
<path d="M256 86 Q244 104 262 114 H556 M330 120 V140 M420 120 V140 M500 120 V140" fill="none" stroke-width="2"/>
<rect x="548" y="84" width="26" height="88" rx="6" fill="#ebcfa8"/>
<path d="M166 144 V170 M556 144 V170" stroke-width="5"/>
<path d="M1072 116 V170 M1328 116 V170" stroke-width="7"/>
<path d="M1072 116 V170 M1328 116 V170" stroke="#ebcfa8" stroke-width="3"/>
<rect x="1052" y="104" width="296" height="12" rx="4" fill="#ebcfa8"/>
<rect x="1150" y="98" width="28" height="6" rx="3" fill="#bfc3cc" stroke-width="2"/>
<path d="M1164 98 V76"/>
<path d="M1148 78 L1156 60 H1172 L1180 78 Z" fill="#ffd66b"/>
<rect x="1216" y="92" width="64" height="12" rx="2" fill="#c9bfe8" stroke-width="2"/>
<rect x="1300" y="78" width="22" height="26" rx="3" fill="#ffffff" stroke-width="2"/>
<path d="M1306 78 L1302 62 M1312 78 V58 M1318 78 L1324 64" stroke-width="2"/>
<circle cx="1302" cy="60" r="3" fill="#a8c8e8" stroke-width="2"/>
<path d="M1190 144 L1186 174 M1230 144 L1234 174" stroke-width="5"/>
<rect x="1176" y="134" width="68" height="12" rx="6" fill="#f6b8c8"/>
</g>
</svg>
